<svg height="526" width="720" xmlns="http://www.w3.org/2000/svg">
<rect height="526" fill="#555" width="720"></rect>
<text fill="#7f7" font-family="Courier New" font-size="12" xml:space="preserve">
<tspan x="10" y="26">14 megabytes installed</tspan>
<tspan x="10" y="42"></tspan>
<tspan x="10" y="58">node_modules</tspan>
<tspan x="10" y="74">└─┬ google-closure-compiler@20170423.0.0 </tspan>
<tspan x="10" y="90">  ├─┬ chalk@1.1.3 </tspan>
<tspan x="10" y="106">  │ ├── ansi-styles@2.2.1 </tspan>
<tspan x="10" y="122">  │ ├── escape-string-regexp@1.0.5 </tspan>
<tspan x="10" y="138">  │ ├─┬ has-ansi@2.0.0 </tspan>
<tspan x="10" y="154">  │ │ └── ansi-regex@2.1.1 </tspan>
<tspan x="10" y="170">  │ ├── strip-ansi@3.0.1 </tspan>
<tspan x="10" y="186">  │ └── supports-color@2.0.0 </tspan>
<tspan x="10" y="202">  ├─┬ vinyl@2.0.2 </tspan>
<tspan x="10" y="218">  │ ├── clone@1.0.2 </tspan>
<tspan x="10" y="234">  │ ├── clone-buffer@1.0.0 </tspan>
<tspan x="10" y="250">  │ ├── clone-stats@1.0.0 </tspan>
<tspan x="10" y="266">  │ ├─┬ cloneable-readable@1.0.0 </tspan>
<tspan x="10" y="282">  │ │ ├── inherits@2.0.3 </tspan>
<tspan x="10" y="298">  │ │ ├── process-nextick-args@1.0.7 </tspan>
<tspan x="10" y="314">  │ │ └─┬ through2@2.0.3 </tspan>
<tspan x="10" y="330">  │ │   ├─┬ readable-stream@2.2.9 </tspan>
<tspan x="10" y="346">  │ │   │ ├── buffer-shims@1.0.0 </tspan>
<tspan x="10" y="362">  │ │   │ ├── core-util-is@1.0.2 </tspan>
<tspan x="10" y="378">  │ │   │ ├── isarray@1.0.0 </tspan>
<tspan x="10" y="394">  │ │   │ ├── string_decoder@1.0.0 </tspan>
<tspan x="10" y="410">  │ │   │ └── util-deprecate@1.0.2 </tspan>
<tspan x="10" y="426">  │ │   └── xtend@4.0.1 </tspan>
<tspan x="10" y="442">  │ ├── is-stream@1.1.0 </tspan>
<tspan x="10" y="458">  │ ├── remove-trailing-separator@1.0.1 </tspan>
<tspan x="10" y="474">  │ └── replace-ext@1.0.0 </tspan>
<tspan x="10" y="490">  └─┬ vinyl-sourcemaps-apply@0.2.1 </tspan>
<tspan x="10" y="506">    └── source-map@0.5.6</tspan>
</text>
</svg>
